# xmcd CD database file
#
# Track frame offsets:
#	150
#	17452
#	44900
#	65235
#	85275
#	106600
#	122065
#	152175
#	167270
#	189832
#	208427
#
# Disc length: 3003 seconds
#
# Revision: 0
# Processed by: cddbd v1.5.1PL2 Copyright (c) Steve Scherf et al.
# Submitted via: CDex 1.51
#
DISCID=920bb90b
DTITLE=Mathias Algotsson Trio - Young And Foolish
DYEAR=2006
DGENRE=Jazz
TTITLE0=Kickoff
TTITLE1=Stella By Starlight
TTITLE2=My Romance
TTITLE3=Autumn Leaves
TTITLE4=Young And Foolish
TTITLE5=Per Speleman
TTITLE6=Here's That Rainy Day
TTITLE7=I Will Wait For You
TTITLE8=Love Is A Many Splendored Thing
TTITLE9=Allhelgonablues
TTITLE10=Falling Leaves
EXTD=YEAR: 2006
EXTT0=
EXTT1=
EXTT2=
EXTT3=
EXTT4=
EXTT5=
EXTT6=
EXTT7=
EXTT8=
EXTT9=
EXTT10=
PLAYORDER=
